name C:\Users\u0101727\Documents\MyRepositories\predictivesimulations\OpenSimModel\subject1\EMG\EMG_gait_23.mot
datacolumns 25
datarows 15
range 3.59300000 3.60700000
endheader
time	HamL_r	TA_r	PerL_r	GL_r	HamM_r	Sol_r	VL_r	VM_r	PerB_l	TA_l	PerL_l	GL_l	GM_l	Sol_l	VL_l	VM_l	AddL_l	RF_l	TFL_l	GluMed_l	HamL_l	HamM_l	GluMed_r	RF_r	
          3.59300000	          0.00507222	          0.00417804	          0.01182281	          0.00340461	          0.00478561	          0.00994372	          0.00670053	          0.00412601	          0.01947850	          0.00866287	          0.01240807	          0.01455381	          0.01448283	          0.03597788	          0.04347462	          0.05008824	          0.01891310	          0.02321130	          0.03420757	          0.02645152	          0.01308539	          0.01362287	          0.00423688	          0.00849133	
          3.59400000	          0.00503023	          0.00417220	          0.01200616	          0.00340031	          0.00481922	          0.01002849	          0.00675939	          0.00415439	          0.02004125	          0.00798291	          0.01251914	          0.01465947	          0.01473831	          0.03690594	          0.04336110	          0.04990981	          0.01880546	          0.02319030	          0.03375508	          0.02644778	          0.01308927	          0.01351436	          0.00422131	          0.00857793	
          3.59500000	          0.00498688	          0.00416690	          0.01219227	          0.00339656	          0.00485209	          0.01010938	          0.00681695	          0.00418101	          0.02060656	          0.00734874	          0.01263746	          0.01476530	          0.01499145	          0.03784180	          0.04322354	          0.04969389	          0.01868669	          0.02315294	          0.03331755	          0.02644374	          0.01308357	          0.01339963	          0.00420931	          0.00866004	
          3.59600000	          0.00494227	          0.00416225	          0.01238067	          0.00339345	          0.00488393	          0.01018618	          0.00687307	          0.00420586	          0.02117204	          0.00675894	          0.01276213	          0.01487077	          0.01524088	          0.03878426	          0.04306209	          0.04944070	          0.01855616	          0.02309804	          0.03289358	          0.02644005	          0.01306789	          0.01327854	          0.00420108	          0.00873710	
          3.59700000	          0.00489648	          0.00415830	          0.01257087	          0.00339110	          0.00491446	          0.01025866	          0.00692761	          0.00422892	          0.02173519	          0.00621205	          0.01289221	          0.01497527	          0.01548518	          0.03973194	          0.04287705	          0.04915062	          0.01841345	          0.02302461	          0.03248189	          0.02643732	          0.01304182	          0.01315104	          0.00419677	          0.00880848	
          3.59800000	          0.00484958	          0.00415511	          0.01276225	          0.00338962	          0.00494340	          0.01032648	          0.00698040	          0.00425019	          0.02229368	          0.00570662	          0.01302668	          0.01507817	          0.01572300	          0.04068346	          0.04266874	          0.04882398	          0.01825858	          0.02293190	          0.03208150	          0.02643601	          0.01300504	          0.01301718	          0.00419655	          0.00887355	
          3.59900000	          0.00480164	          0.00415276	          0.01295410	          0.00338911	          0.00497052	          0.01038920	          0.00703127	          0.00426965	          0.02284547	          0.00524114	          0.01316448	          0.01517896	          0.01595315	          0.04163785	          0.04243726	          0.04846091	          0.01809193	          0.02281932	          0.03169173	          0.02643650	          0.01295749	          0.01287700	          0.00420062	          0.00893166	
          3.60000000	          0.00475278	          0.00415132	          0.01314559	          0.00338966	          0.00499562	          0.01044626	          0.00708002	          0.00428724	          0.02338876	          0.00481413	          0.01330463	          0.01527722	          0.01617459	          0.04259493	          0.04218236	          0.04806134	          0.01791405	          0.02268640	          0.03131207	          0.02643904	          0.01289940	          0.01273057	          0.00420914	          0.00898220	
          3.60100000	          0.00470317	          0.00415088	          0.01333588	          0.00339132	          0.00501849	          0.01049702	          0.00712637	          0.00430295	          0.02392174	          0.00442407	          0.01344639	          0.01537258	          0.01638629	          0.04355523	          0.04190362	          0.04762542	          0.01772551	          0.02253278	          0.03094204	          0.02644371	          0.01283118	          0.01257796	          0.00422232	          0.00902460	
          3.60200000	          0.00465308	          0.00415154	          0.01352416	          0.00339412	          0.00503900	          0.01054086	          0.00716999	          0.00431679	          0.02444251	          0.00406942	          0.01358937	          0.01546467	          0.01658714	          0.04451974	          0.04160061	          0.04715395	          0.01752680	          0.02235833	          0.03058116	          0.02645033	          0.01275318	          0.01241930	          0.00424035	          0.00905838	
          3.60300000	          0.00460285	          0.00415339	          0.01370967	          0.00339806	          0.00505706	          0.01057734	          0.00721053	          0.00432884	          0.02494916	          0.00374858	          0.01373340	          0.01555316	          0.01677603	          0.04548979	          0.04127285	          0.04664850	          0.01731834	          0.02216317	          0.03022908	          0.02645854	          0.01266565	          0.01225475	          0.00426343	          0.00908322	
          3.60400000	          0.00455287	          0.00415649	          0.01389169	          0.00340311	          0.00507266	          0.01060624	          0.00724761	          0.00433919	          0.02544014	          0.00345997	          0.01387840	          0.01563788	          0.01695191	          0.04646685	          0.04091989	          0.04611145	          0.01710048	          0.02194756	          0.02988574	          0.02646805	          0.01256873	          0.01208439	          0.00429172	          0.00909887	
          3.60500000	          0.00450348	          0.00416089	          0.01406968	          0.00340923	          0.00508578	          0.01062750	          0.00728087	          0.00434788	          0.02591440	          0.00320203	          0.01402430	          0.01571884	          0.01711407	          0.04745229	          0.04054164	          0.04554600	          0.01687359	          0.02171185	          0.02955127	          0.02647881	          0.01246249	          0.01190825	          0.00432534	          0.00910526	
          3.60600000	          0.00445500	          0.00416661	          0.01424336	          0.00341638	          0.00509635	          0.01064112	          0.00731000	          0.00435497	          0.02637126	          0.00297321	          0.01417097	          0.01579618	          0.01726232	          0.04844713	          0.04013842	          0.04495609	          0.01663827	          0.02145663	          0.02922583	          0.02649091	          0.01234705	          0.01172643	          0.00436443	          0.00910248	
          3.60700000	          0.00440771	          0.00417365	          0.01441268	          0.00342448	          0.00510425	          0.01064703	          0.00733473	          0.00436050	          0.02681054	          0.00277202	          0.01431826	          0.01587004	          0.01739688	          0.04945202	          0.03971091	          0.04434609	          0.01639550	          0.02118291	          0.02890969	          0.02650455	          0.01222269	          0.01153921	          0.00440904	          0.00909081	
